<svg width="52" height="52" viewBox="0 0 52 52" fill="none" xmlns="http://www.w3.org/2000/svg">
<path d="M49.9259 45.5858L45.5 43.3728V30.4688C45.4979 28.6377 44.7696 26.8823 43.4749 25.5876C42.1802 24.2929 40.4247 23.5646 38.5937 23.5625H24.8098L24.7781 23.5149C24.3648 22.8941 23.8264 22.3665 23.1973 21.966C22.5682 21.5654 21.8623 21.3007 21.125 21.1889V4.0625C21.1243 3.41626 20.8672 2.7967 20.4103 2.33973C19.9533 1.88277 19.3337 1.62573 18.6875 1.625H17.0625C16.892 1.625 16.7257 1.67866 16.5874 1.77837C16.4491 1.87808 16.3456 2.01879 16.2916 2.18057L15.7754 3.7293L14.9884 3.33579C14.7956 3.23944 14.5725 3.22359 14.3681 3.29173C14.1637 3.35987 13.9947 3.50642 13.8983 3.69914L13.0858 5.32414C13.0217 5.45225 12.9927 5.59502 13.0016 5.73798C13.0105 5.88094 13.057 6.01901 13.1365 6.13818L14.5937 8.32415L12.5487 24.6845C11.7952 23.964 10.7926 23.562 9.74999 23.5625H6.49999C5.65485 23.562 4.83063 23.8252 4.14224 24.3155C3.45385 24.8058 2.93561 25.4987 2.6598 26.2975C2.38398 27.0964 2.36432 27.9614 2.60358 28.772C2.84283 29.5825 3.32906 30.2982 3.99447 30.8193L3.54396 31.7203C3.34405 32.1201 3.24334 32.5621 3.25033 33.009C3.25732 33.4559 3.37181 33.8946 3.58413 34.2879C3.79645 34.6812 4.10035 35.0176 4.47013 35.2687C4.83991 35.5197 5.26471 35.6781 5.70861 35.7303C4.74339 37.1335 4.17987 38.7737 4.07892 40.4738C3.97797 42.1739 4.34343 43.8692 5.13582 45.3768C5.92822 46.8843 7.11743 48.1467 8.57501 49.0276C10.0326 49.9085 11.7031 50.3744 13.4062 50.375H18.2812C20.2785 50.3756 22.2234 49.736 23.8305 48.55C25.4375 47.3641 26.6222 45.6942 27.2105 43.7856C27.7989 41.8769 27.7599 39.8299 27.0995 37.945C26.439 36.0601 25.1918 34.4365 23.5408 33.3125H37.5058L39.8125 46.3834V48.75C39.8125 48.9655 39.8981 49.1721 40.0505 49.3245C40.2028 49.4769 40.4095 49.5625 40.625 49.5625H49.5625C49.778 49.5625 49.9846 49.4769 50.137 49.3245C50.2894 49.1721 50.375 48.9655 50.375 48.75V46.3125C50.375 46.1616 50.333 46.0137 50.2537 45.8854C50.1743 45.757 50.0608 45.6533 49.9259 45.5858ZM34.9375 25.1875V31.6875H27.625V25.1875H34.9375ZM14.9884 5.15256L15.8866 5.60171C15.9907 5.65377 16.1048 5.68286 16.2211 5.68699C16.3375 5.69113 16.4534 5.67021 16.5609 5.62567C16.6685 5.58112 16.7652 5.51398 16.8446 5.4288C16.9239 5.34361 16.984 5.24237 17.0208 5.13193L17.6481 3.25H18.6875C18.9029 3.25025 19.1094 3.33593 19.2617 3.48825C19.4141 3.64057 19.4997 3.84709 19.5 4.0625V17.875H15.0376L16.2437 8.22577C16.2679 8.03228 16.2217 7.83654 16.1135 7.67432L14.7501 5.62913L14.9884 5.15256ZM7.31249 25.1875H9.74999C10.3965 25.1875 11.0164 25.4443 11.4736 25.9014C11.9307 26.3585 12.1875 26.9785 12.1875 27.625C12.1875 28.2715 11.9307 28.8915 11.4736 29.3486C11.0164 29.8057 10.3965 30.0625 9.74999 30.0625H8.93749V29.25C8.93749 29.0345 8.8519 28.8279 8.69955 28.6755L7.31249 27.2884V25.1875ZM5.68749 25.3273V27.625C5.68748 27.8405 5.77307 28.0471 5.92543 28.1995L7.31249 29.5866V30.0625H6.49999C5.92501 30.0626 5.36853 29.8593 4.92891 29.4887C4.48928 29.1182 4.19483 28.6041 4.09759 28.0374C4.00036 27.4707 4.1066 26.8879 4.39754 26.3919C4.68848 25.896 5.14538 25.5189 5.68749 25.3273ZM4.87499 32.9655C4.87522 32.7855 4.91711 32.6081 4.99738 32.447L5.44675 31.5482C5.79019 31.6407 6.14432 31.6875 6.49999 31.6875H10.5625C11.2087 31.6882 11.8283 31.9453 12.2853 32.4022C12.7422 32.8592 12.9993 33.4788 13 34.125V35.6592C11.4997 34.6544 9.73356 34.1202 7.92781 34.125H6.03443C5.72702 34.1246 5.43232 34.0024 5.21495 33.785C4.99759 33.5676 4.87533 33.2729 4.87499 32.9655ZM26 41.0312C25.9977 43.0777 25.1837 45.0396 23.7367 46.4867C22.2896 47.9337 20.3277 48.7477 18.2812 48.75H13.4062C11.9005 48.7502 10.4275 48.31 9.16883 47.4834C7.91017 46.6569 6.9208 45.4802 6.3226 44.0984C5.72441 42.7165 5.54354 41.1898 5.80226 39.7064C6.06099 38.2231 6.74801 36.8478 7.77869 35.75H7.92781C8.91439 35.7473 9.89171 35.9403 10.8032 36.3179C11.7147 36.6954 12.5422 37.25 13.2379 37.9495C13.3516 38.0631 13.4963 38.1405 13.6539 38.1719C13.8116 38.2033 13.9749 38.1872 14.1234 38.1257C14.2719 38.0642 14.3988 37.96 14.4881 37.8264C14.5773 37.6928 14.625 37.5357 14.625 37.375V34.125C14.6251 33.6963 14.557 33.2703 14.4233 32.863C15.3392 33.1612 16.2964 33.3129 17.2597 33.3125H18.2812C20.3277 33.3148 22.2896 34.1288 23.7367 35.5758C25.1837 37.0229 25.9977 38.9848 26 41.0312ZM17.2597 31.6875C15.6727 31.6916 14.1259 31.189 12.8444 30.2529C13.4552 29.5368 13.797 28.6299 13.8109 27.6887L14.8345 19.5H19.5V26H21.125V22.8405C22.0668 23.0487 22.8915 23.6135 23.426 24.4164L23.699 24.8257C23.7732 24.937 23.8737 25.0283 23.9916 25.0914C24.1095 25.1545 24.2412 25.1875 24.375 25.1875H26V31.6875H17.2597ZM38.1875 31.6875H36.5625V25.1875H38.5937C39.9939 25.1891 41.3363 25.746 42.3264 26.7361C43.3165 27.7262 43.8734 29.0686 43.875 30.4688V43.415L41.2198 45.0081L38.9876 32.3588C38.9544 32.1707 38.856 32.0003 38.7097 31.8775C38.5634 31.7548 38.3785 31.6875 38.1875 31.6875ZM48.75 47.9375H41.4375V46.7725L44.7231 44.8012L48.75 46.8147V47.9375Z" fill="#FF2625" fill-opacity="0.2"/>
</svg>
