<svg width="58" height="58" viewBox="0 0 58 58" fill="none" xmlns="http://www.w3.org/2000/svg">
<path d="M16.4427 38.0625H24.7317L17.3351 51.212C17.2588 51.3476 17.2187 51.5006 17.2187 51.6563V55.2813C17.2187 55.4003 17.2422 55.5181 17.2877 55.6281C17.3332 55.738 17.4 55.8379 17.4841 55.9221C17.5683 56.0062 17.6682 56.073 17.7782 56.1185C17.8881 56.1641 18.006 56.1875 18.125 56.1875H38.9687C39.0877 56.1875 39.2056 56.1641 39.3155 56.1185C39.4255 56.073 39.5254 56.0062 39.6095 55.9221C39.6937 55.8379 39.7605 55.738 39.806 55.6281C39.8515 55.5181 39.875 55.4003 39.875 55.2813V53.4688C39.875 53.309 39.8328 53.1521 39.7526 53.0139C39.6724 52.8757 39.5571 52.7612 39.4184 52.6819L33.852 49.5011L40.7414 37.1004C41.3005 36.0939 41.594 34.9615 41.5941 33.8101C41.5943 32.6587 41.301 31.5262 40.7421 30.5196C40.1831 29.513 39.3769 28.6653 38.3995 28.0567C37.4221 27.4481 36.3058 27.0985 35.1558 27.041L21.2846 26.3475L23.2204 23.4437L36.3687 19.9375H46.2187C46.4148 19.9375 46.6056 19.8739 46.7625 19.7562L50.3875 17.0375C50.5 16.9531 50.5914 16.8436 50.6543 16.7178C50.7172 16.592 50.75 16.4532 50.75 16.3125V14.5C50.75 14.381 50.7265 14.2631 50.681 14.1532C50.6355 14.0432 50.5687 13.9433 50.4846 13.8592C50.4004 13.775 50.3005 13.7083 50.1905 13.6627C50.0806 13.6172 49.9627 13.5937 49.8437 13.5938H27.185C27.7757 12.8105 28.0947 11.856 28.0937 10.875V5.4375C28.0937 4.7643 27.9063 4.10439 27.5523 3.53173C27.1984 2.95907 26.692 2.49628 26.0899 2.19521C25.4878 1.89414 24.8137 1.76669 24.1432 1.82715C23.4727 1.8876 22.8323 2.13357 22.2938 2.53749L19.3937 4.71251C19.2812 4.79692 19.1898 4.90638 19.1269 5.03221C19.064 5.15805 19.0312 5.29681 19.0312 5.4375V10.875C19.0302 11.856 19.3493 12.8105 19.9399 13.5938H18.2118C17.4793 13.5938 16.7577 13.7715 16.1089 14.1114C15.46 14.4514 14.9033 14.9435 14.4863 15.5458L8.88447 23.6372C7.9296 25.0165 7.37035 26.6308 7.26733 28.3052C7.1643 29.9796 7.52142 31.6502 8.29999 33.1362C9.07857 34.6221 10.2489 35.8667 11.6842 36.7351C13.1196 37.6035 14.7652 38.0625 16.4427 38.0625ZM27.0635 36.6988C26.9836 36.5622 26.8694 36.4489 26.7322 36.3702C26.5949 36.2914 26.4394 36.25 26.2812 36.25H20.4257L23.3244 29.728L31.3262 31.0617C31.9535 31.1662 32.5435 31.4297 33.0401 31.827C33.5367 32.2242 33.9232 32.742 34.1629 33.3311C34.4026 33.9201 34.4874 34.5607 34.4093 35.1918C34.3312 35.8229 34.0927 36.4235 33.7166 36.9363L24.8377 49.0439L19.9464 50.2668L27.0711 37.6005C27.1487 37.4626 27.1888 37.3068 27.1874 37.1486C27.1861 36.9904 27.1434 36.8353 27.0635 36.6988ZM30.8125 54.375H19.0312V52.3638L25.2415 50.8113L30.8125 53.9947V54.375ZM38.0625 53.9947V54.375H32.625V53.4688C32.625 53.309 32.5828 53.1521 32.5026 53.0139C32.4224 52.8757 32.3071 52.7612 32.1684 52.6819L30.0817 51.4896L32.5033 50.818L38.0625 53.9947ZM38.9479 31.0557C39.4557 31.8135 39.7439 32.697 39.7808 33.6084C39.8177 34.5199 39.6018 35.4238 39.157 36.2201L32.0171 49.0719L27.8657 50.2233L26.7063 49.5608L35.1782 38.0081C35.7374 37.2457 36.0919 36.3528 36.208 35.4144C36.3242 34.4761 36.1981 33.5237 35.8417 32.6479C35.4854 31.7722 34.9107 31.0023 34.1724 30.4116C33.4341 29.821 32.5568 29.4293 31.6242 29.2739L26.5276 28.4244L35.0653 28.8513C35.8393 28.8916 36.5933 29.1118 37.2672 29.4945C37.9412 29.8771 38.5167 30.4117 38.9479 31.0557ZM48.9375 15.8594L45.9167 18.125H43.4999L44.95 17.0375C45.0625 16.9531 45.1539 16.8436 45.2168 16.7178C45.2797 16.592 45.3125 16.4532 45.3125 16.3125V15.4063H48.9375V15.8594ZM43.5 15.4063V15.8594L40.4792 18.125H36.25C36.1711 18.125 36.0926 18.1353 36.0164 18.1556L28.0937 20.2683V15.4063H43.5ZM23.3812 3.98747C23.6505 3.78552 23.9707 3.66254 24.3059 3.63232C24.6412 3.6021 24.9782 3.66583 25.2793 3.81636C25.5804 3.9669 25.8336 4.19829 26.0105 4.48462C26.1875 4.77095 26.2812 5.1009 26.2812 5.4375V6.34375H23.5625C23.4435 6.34375 23.3256 6.36719 23.2157 6.41273C23.1057 6.45828 23.0058 6.52504 22.9217 6.6092L21.3746 8.15625H20.8437V5.89063L23.3812 3.98747ZM20.8437 10.875V9.96875H21.75C21.869 9.96876 21.9868 9.94532 22.0968 9.89977C22.2067 9.85422 22.3066 9.78746 22.3908 9.7033L23.9379 8.15625H26.2812V10.875C26.2812 11.5961 25.9948 12.2876 25.4849 12.7974C24.9751 13.3073 24.2835 13.5938 23.5625 13.5938C22.8414 13.5938 22.1499 13.3073 21.64 12.7974C21.1302 12.2876 20.8437 11.5961 20.8437 10.875ZM15.9765 16.5775C16.2267 16.2161 16.5608 15.9208 16.9501 15.7168C17.3394 15.5129 17.7723 15.4063 18.2118 15.4063H26.2812V20.7517L22.4227 21.7806C22.2096 21.8375 22.0245 21.9701 21.9022 22.1536L18.6395 27.0476L10.3046 24.7744C10.328 24.7393 10.3506 24.7037 10.3747 24.6689L15.9765 16.5775ZM9.4771 26.4275L18.7928 28.9681L18.7931 28.967C18.8224 28.9754 18.8522 28.9823 18.8822 28.9877L21.4777 29.4203L18.4423 36.25H16.4427C15.2638 36.2495 14.102 35.9667 13.0548 35.4253C12.0075 34.8838 11.1051 34.0994 10.4231 33.1377C9.74112 32.176 9.29935 31.065 9.13477 29.8975C8.97018 28.7301 9.08757 27.5402 9.4771 26.4275H9.4771Z" fill="#FF2625" fill-opacity="0.2"/>
</svg>
