<svg width="53" height="53" viewBox="0 0 53 53" fill="none" xmlns="http://www.w3.org/2000/svg">
<path d="M48.8594 18.2188H48.0312V14.9062C48.0314 14.5088 47.9361 14.1171 47.7534 13.764C47.5707 13.411 47.306 13.107 46.9814 12.8775C46.6569 12.6481 46.282 12.4998 45.8882 12.4453C45.4945 12.3908 45.0934 12.4316 44.7188 12.5643V9.10938C44.718 8.45071 44.456 7.81925 43.9902 7.3535C43.5245 6.88776 42.893 6.62577 42.2344 6.625H40.5781C39.9195 6.62577 39.288 6.88776 38.8223 7.3535C38.3565 7.81925 38.0945 8.45071 38.0938 9.10938V18.2188H35.4669C35.3557 17.9037 35.1821 17.6143 34.9563 17.3679C34.7306 17.1216 34.4574 16.9233 34.1532 16.7851C33.849 16.6469 33.5201 16.5715 33.186 16.5635C32.852 16.5555 32.5198 16.615 32.2093 16.7385C32.1177 16.401 31.9559 16.0867 31.7344 15.8162C31.5129 15.5456 31.2367 15.325 30.9239 15.1686C30.6112 15.0122 30.2689 14.9237 29.9196 14.9088C29.5703 14.8939 29.2217 14.953 28.8968 15.0822C28.7859 14.6734 28.5721 14.2997 28.2759 13.9968C27.9797 13.6939 27.6109 13.4719 27.2046 13.3518C26.7984 13.2318 26.3681 13.2177 25.9548 13.311C25.5416 13.4042 25.1591 13.6017 24.8438 13.8847C24.4867 13.5643 24.0444 13.3543 23.5705 13.2799C23.0965 13.2056 22.6112 13.2702 22.1732 13.4659C21.7352 13.6615 21.3633 13.9799 21.1024 14.3825C20.8415 14.7851 20.7028 15.2546 20.7031 15.7344V16.5625H19.875C19.3614 16.5632 18.8607 16.7227 18.4414 17.0192C18.0221 17.3158 17.7048 17.7348 17.5331 18.2188H14.9062V9.10938C14.9055 8.45071 14.6435 7.81925 14.1777 7.3535C13.712 6.88776 13.0805 6.62577 12.4219 6.625H10.7656C10.107 6.62577 9.4755 6.88776 9.00975 7.3535C8.54401 7.81925 8.28202 8.45071 8.28125 9.10938V12.5643C7.90656 12.4316 7.50549 12.3908 7.11176 12.4453C6.71803 12.4998 6.34313 12.6481 6.01856 12.8775C5.694 13.107 5.42926 13.411 5.24658 13.764C5.0639 14.1171 4.96862 14.5088 4.96875 14.9062V18.2188H4.14062C3.48195 18.2195 2.85047 18.4815 2.38472 18.9472C1.91897 19.413 1.65699 20.0445 1.65625 20.7031V22.3594C1.65699 23.018 1.91897 23.6495 2.38472 24.1153C2.85047 24.581 3.48195 24.843 4.14062 24.8438H4.96875V28.1562C4.96862 28.5537 5.0639 28.9455 5.24658 29.2985C5.42926 29.6515 5.694 29.9555 6.01856 30.185C6.34313 30.4144 6.71803 30.5627 7.11176 30.6172C7.50549 30.6717 7.90656 30.6309 8.28125 30.4982V33.9531C8.28202 34.6118 8.54401 35.2433 9.00975 35.709C9.4755 36.1747 10.107 36.4367 10.7656 36.4375H12.4219C13.0805 36.4367 13.712 36.1747 14.1777 35.709C14.6435 35.2433 14.9055 34.6118 14.9062 33.9531V24.8438H17.3906V27.3281C17.3906 27.4916 17.439 27.6515 17.5297 27.7875L20.7031 32.5476V45.5469C20.7031 45.7665 20.7904 45.9771 20.9457 46.1325C21.101 46.2878 21.3116 46.375 21.5312 46.375H33.125C33.3446 46.375 33.5553 46.2878 33.7106 46.1325C33.8659 45.9771 33.9531 45.7665 33.9531 45.5469V32.4314L35.5668 27.5902C35.595 27.5057 35.6094 27.4172 35.6094 27.3281V24.8438H38.0938V33.9531C38.0945 34.6118 38.3565 35.2433 38.8223 35.709C39.288 36.1747 39.9195 36.4367 40.5781 36.4375H42.2344C42.893 36.4367 43.5245 36.1747 43.9902 35.709C44.456 35.2433 44.718 34.6118 44.7188 33.9531V30.4982C45.0934 30.6309 45.4945 30.6717 45.8882 30.6172C46.282 30.5627 46.6569 30.4144 46.9814 30.185C47.306 29.9555 47.5707 29.6515 47.7534 29.2985C47.9361 28.9455 48.0314 28.5537 48.0312 28.1562V24.8438H48.8594C49.518 24.843 50.1495 24.581 50.6153 24.1153C51.081 23.6495 51.343 23.018 51.3438 22.3594V20.7031C51.343 20.0445 51.081 19.413 50.6153 18.9472C50.1495 18.4815 49.518 18.2195 48.8594 18.2188ZM33.125 18.2188C33.3446 18.219 33.5551 18.3063 33.7103 18.4616C33.8656 18.6168 33.9529 18.8273 33.9531 19.0469V22.3594C33.9531 22.579 33.8659 22.7896 33.7106 22.9449C33.5553 23.1003 33.3446 23.1875 33.125 23.1875C32.9054 23.1875 32.6947 23.1003 32.5394 22.9449C32.3841 22.7896 32.2969 22.579 32.2969 22.3594V19.0469C32.2971 18.8273 32.3844 18.6168 32.5397 18.4616C32.6949 18.3063 32.9054 18.219 33.125 18.2188ZM29.8125 16.5625C30.0321 16.5627 30.2426 16.6501 30.3978 16.8053C30.5531 16.9606 30.6404 17.1711 30.6406 17.3906V22.3594C30.6406 22.579 30.5534 22.7896 30.3981 22.9449C30.2428 23.1003 30.0321 23.1875 29.8125 23.1875C29.5929 23.1875 29.3822 23.1003 29.2269 22.9449C29.0716 22.7896 28.9844 22.579 28.9844 22.3594V17.3906C28.9846 17.1711 29.0719 16.9606 29.2272 16.8053C29.3824 16.6501 29.5929 16.5627 29.8125 16.5625ZM26.5 14.9062C26.7196 14.9065 26.9301 14.9938 27.0853 15.1491C27.2406 15.3043 27.3279 15.5148 27.3281 15.7344V22.3594C27.3281 22.579 27.2409 22.7896 27.0856 22.9449C26.9303 23.1003 26.7196 23.1875 26.5 23.1875C26.2804 23.1875 26.0697 23.1003 25.9144 22.9449C25.7591 22.7896 25.6719 22.579 25.6719 22.3594V15.7344C25.6721 15.5148 25.7594 15.3043 25.9147 15.1491C26.07 14.9938 26.2804 14.9065 26.5 14.9062ZM24.0156 22.3594C24.0156 22.579 23.9284 22.7896 23.7731 22.9449C23.6178 23.1003 23.4071 23.1875 23.1875 23.1875C22.9679 23.1875 22.7572 23.1003 22.6019 22.9449C22.4466 22.7896 22.3594 22.579 22.3594 22.3594V21.5312H23.1875C23.4696 21.5314 23.7497 21.4832 24.0156 21.3888V22.3594ZM22.3594 15.7344C22.3594 15.5147 22.4466 15.3041 22.6019 15.1488C22.7572 14.9935 22.9679 14.9062 23.1875 14.9062C23.4071 14.9062 23.6178 14.9935 23.7731 15.1488C23.9284 15.3041 24.0156 15.5147 24.0156 15.7344V16.5625H22.3594V15.7344ZM4.14062 23.1875C3.92107 23.1873 3.71057 23.0999 3.55532 22.9447C3.40007 22.7894 3.31275 22.5789 3.3125 22.3594V20.7031C3.31275 20.4836 3.40007 20.2731 3.55532 20.1178C3.71057 19.9626 3.92107 19.8752 4.14062 19.875H4.96875V23.1875H4.14062ZM7.45312 28.9844C7.23357 28.9841 7.02308 28.8968 6.86783 28.7416C6.71257 28.5863 6.62525 28.3758 6.625 28.1562V14.9062C6.625 14.6866 6.71225 14.476 6.86755 14.3207C7.02286 14.1654 7.23349 14.0781 7.45312 14.0781C7.67276 14.0781 7.88339 14.1654 8.0387 14.3207C8.194 14.476 8.28125 14.6866 8.28125 14.9062V28.1562C8.281 28.3758 8.19368 28.5863 8.03842 28.7416C7.88317 28.8968 7.67268 28.9841 7.45312 28.9844ZM13.25 33.9531C13.2498 34.1727 13.1624 34.3832 13.0072 34.5384C12.8519 34.6937 12.6414 34.781 12.4219 34.7812H10.7656C10.5461 34.781 10.3356 34.6937 10.1803 34.5384C10.0251 34.3832 9.93775 34.1727 9.9375 33.9531V9.10938C9.93775 8.88982 10.0251 8.67932 10.1803 8.52407C10.3356 8.36882 10.5461 8.2815 10.7656 8.28125H12.4219C12.6414 8.2815 12.8519 8.36882 13.0072 8.52407C13.1624 8.67932 13.2498 8.88982 13.25 9.10938V33.9531ZM14.9062 23.1875V19.875H17.3906V23.1875H14.9062ZM33.9531 27.1936L32.3394 32.035C32.3113 32.1194 32.2969 32.2079 32.2969 32.2969V44.7188H22.3594V34.7812H24.8438C25.0634 34.7812 25.274 34.694 25.4293 34.5387C25.5846 34.3834 25.6719 34.1728 25.6719 33.9531C25.6719 33.7335 25.5846 33.5229 25.4293 33.3676C25.274 33.2122 25.0634 33.125 24.8438 33.125H22.3594V32.2969C22.3594 32.1334 22.311 31.9735 22.2203 31.8375L19.0469 27.0774V19.0469C19.0471 18.8273 19.1344 18.6168 19.2897 18.4616C19.445 18.3063 19.6554 18.219 19.875 18.2188H24.0156V19.0469C24.0154 19.2664 23.9281 19.4769 23.7728 19.6322C23.6175 19.7874 23.4071 19.8748 23.1875 19.875H21.5312C21.3116 19.875 21.101 19.9622 20.9457 20.1176C20.7904 20.2729 20.7031 20.4835 20.7031 20.7031V24.0156C20.7031 24.2353 20.7904 24.4459 20.9457 24.6012C21.101 24.7565 21.3116 24.8438 21.5312 24.8438C22.629 24.845 23.6815 25.2816 24.4578 26.0579C25.234 26.8341 25.6706 27.8866 25.6719 28.9844C25.6719 29.204 25.7591 29.4146 25.9144 29.5699C26.0697 29.7253 26.2804 29.8125 26.5 29.8125C26.7196 29.8125 26.9303 29.7253 27.0856 29.5699C27.2409 29.4146 27.3281 29.204 27.3281 28.9844C27.3284 28.2126 27.1742 27.4486 26.8744 26.7374C26.5746 26.0263 26.1354 25.3824 25.5826 24.8438H33.9531V27.1936ZM35.4669 23.1875C35.5613 22.9216 35.6095 22.6415 35.6094 22.3594V19.875H38.0938V23.1875H35.4669ZM43.0625 33.9531C43.0623 34.1727 42.9749 34.3832 42.8197 34.5384C42.6644 34.6937 42.4539 34.781 42.2344 34.7812H40.5781C40.3586 34.781 40.1481 34.6937 39.9928 34.5384C39.8376 34.3832 39.7502 34.1727 39.75 33.9531V9.10938C39.7502 8.88982 39.8376 8.67932 39.9928 8.52407C40.1481 8.36882 40.3586 8.2815 40.5781 8.28125H42.2344C42.4539 8.2815 42.6644 8.36882 42.8197 8.52407C42.9749 8.67932 43.0623 8.88982 43.0625 9.10938V33.9531ZM46.375 28.1562C46.375 28.3759 46.2878 28.5865 46.1325 28.7418C45.9771 28.8971 45.7665 28.9844 45.5469 28.9844C45.3272 28.9844 45.1166 28.8971 44.9613 28.7418C44.806 28.5865 44.7188 28.3759 44.7188 28.1562V14.9062C44.7188 14.6866 44.806 14.476 44.9613 14.3207C45.1166 14.1654 45.3272 14.0781 45.5469 14.0781C45.7665 14.0781 45.9771 14.1654 46.1325 14.3207C46.2878 14.476 46.375 14.6866 46.375 14.9062V28.1562ZM49.6875 22.3594C49.6873 22.5789 49.5999 22.7894 49.4447 22.9447C49.2894 23.0999 49.0789 23.1873 48.8594 23.1875H48.0312V19.875H48.8594C49.0789 19.8752 49.2894 19.9626 49.4447 20.1178C49.5999 20.2731 49.6873 20.4836 49.6875 20.7031V22.3594Z" fill="#FF2625" fill-opacity="0.2"/>
</svg>
