<svg width="53" height="53" viewBox="0 0 53 53" fill="none" xmlns="http://www.w3.org/2000/svg">
<g clip-path="url(#clip0_304_584)">
<path d="M34.5297 0C33.0803 0 31.7175 0.564574 30.6923 1.58979L26.5 5.78207L22.3077 1.58979C21.2825 0.564574 19.9197 0 18.4703 0C15.4777 0 13.043 2.43469 13.043 5.42732V28.8622L11.4356 28.0585C11.1149 27.8981 10.7337 27.9152 10.4285 28.1039C10.1232 28.2926 9.9375 28.6256 9.9375 28.9844V51.9648C9.9375 52.5365 10.401 53 10.9727 53H17.1836C17.7552 53 18.2188 52.5365 18.2188 51.9648V32.0898C18.2188 31.6977 17.9972 31.3394 17.6465 31.164L15.1133 29.8974V5.42732C15.1133 3.57626 16.6192 2.07031 18.4703 2.07031C19.3666 2.07031 20.2097 2.41957 20.8438 3.05381L25.036 7.24609L21.3759 10.9062C20.0075 12.2747 19.2539 14.0941 19.2539 16.0294V16.5625C19.2539 20.558 22.5045 23.8086 26.5 23.8086C30.4955 23.8086 33.7461 20.558 33.7461 16.5625V16.0294C33.7461 14.0942 32.9925 12.2748 31.6241 10.9063L27.964 7.24609L32.1563 3.05381C32.7904 2.41957 33.6334 2.07031 34.5297 2.07031C36.3808 2.07031 37.8867 3.57626 37.8867 5.42732V29.8974L35.3535 31.164C35.0028 31.3394 34.7812 31.6977 34.7812 32.0898V51.9648C34.7812 52.5365 35.2448 53 35.8164 53H42.0273C42.599 53 43.0625 52.5365 43.0625 51.9648V45.133C43.0625 44.5614 42.599 44.0979 42.0273 44.0979C41.4557 44.0979 40.9922 44.5614 40.9922 45.133V50.9297H36.8516V32.7297L40.9922 30.6594V35.8164C40.9922 36.388 41.4557 36.8516 42.0273 36.8516C42.599 36.8516 43.0625 36.388 43.0625 35.8164V28.9844C43.0625 28.6256 42.8767 28.2924 42.5715 28.1038C42.2665 27.9152 41.8852 27.8983 41.5644 28.0584L39.957 28.8622V5.42732C39.957 2.43469 37.5223 0 34.5297 0V0ZM16.1484 50.9297H12.0078V30.6594L16.1484 32.7297V50.9297ZM31.6758 16.0294V16.5625C31.6758 19.4164 29.3539 21.7383 26.5 21.7383C23.6461 21.7383 21.3242 19.4164 21.3242 16.5625V16.0294C21.3242 14.647 21.8625 13.3476 22.8399 12.3702L26.5 8.71012L30.1601 12.3702C31.1375 13.3475 31.6758 14.647 31.6758 16.0294Z" fill="#FF2625" fill-opacity="0.2"/>
<path d="M42.0273 41.5098C42.599 41.5098 43.0625 41.0463 43.0625 40.4746C43.0625 39.9029 42.599 39.4395 42.0273 39.4395C41.4556 39.4395 40.9922 39.9029 40.9922 40.4746C40.9922 41.0463 41.4556 41.5098 42.0273 41.5098Z" fill="#FF2625" fill-opacity="0.2"/>
</g>
<defs>
<clipPath id="clip0_304_584">
<rect width="53" height="53" fill="white"/>
</clipPath>
</defs>
</svg>
