<svg width="50" height="50" viewBox="0 0 50 50" fill="none" xmlns="http://www.w3.org/2000/svg">
<g clip-path="url(#clip0_304_564)">
<path fill-rule="evenodd" clip-rule="evenodd" d="M45.0068 26.4026C44.5765 23.8963 43.5973 21.5861 42.512 19.4354C42.5089 19.4297 42.5063 19.4236 42.5032 19.4179C42.0561 18.5325 41.5911 17.6742 41.1395 16.8399C39.6662 14.1208 38.275 11.5524 38.1667 9.21551C37.9191 3.89975 40.2178 1.80129 40.3086 1.7208C40.6287 1.4595 40.742 1.03149 40.6035 0.642392C40.465 0.253676 40.0889 0 39.6762 0H10.4061C9.99297 0 9.61379 0.250625 9.47532 0.639341C9.33647 1.02844 9.44633 1.45301 9.76638 1.71432C9.86442 1.80091 12.1631 3.89975 11.916 9.21513C11.8072 11.552 10.416 14.1204 8.94317 16.8399C8.49113 17.6738 8.02612 18.5325 7.57904 19.4179C7.57599 19.4236 7.57332 19.4293 7.57027 19.435C6.41633 21.7219 5.38255 24.1889 5.0007 26.8805C4.99612 26.9076 4.99231 26.9351 4.99002 26.9626C4.85421 27.9551 4.80615 28.9782 4.87558 30.0345C4.99383 31.8389 5.30168 33.8797 5.79034 36.101C5.9063 36.6278 6.42701 36.9605 6.95382 36.8449C7.48062 36.7289 7.81365 36.2082 7.69768 35.6814C7.23038 33.5559 6.93665 31.613 6.8245 29.9067C6.80275 29.5771 6.79551 29.251 6.79856 28.9279L20.6832 39.5968C21.6159 40.3136 22.7996 40.7587 24.0646 40.8774V48.0471H11.6115C11.2533 47.1647 10.5465 45.3638 9.78698 43.0998C9.61532 42.5886 9.06143 42.3132 8.55064 42.4849C8.03909 42.6562 7.76367 43.2097 7.93533 43.7212C9.04579 47.0308 10.0201 49.3128 10.0609 49.4081C10.215 49.7671 10.5678 50.0002 10.9585 50.0002H39.1238C39.5144 50.0002 39.8677 49.7671 40.0214 49.4081C40.2102 48.9679 44.6497 38.526 45.2067 30.0349C45.2879 28.7978 45.2094 27.6065 45.0156 26.456C45.0133 26.438 45.0102 26.4205 45.0068 26.4026ZM13.8668 9.3063C14.0316 5.76627 13.171 3.38515 12.3566 1.9535H37.7257C36.9109 3.38515 36.0507 5.76627 36.2155 9.3063C36.3448 12.0895 37.8398 14.849 39.4217 17.7703C39.7513 18.3784 40.0824 18.9903 40.4051 19.6071C36.8552 22.2102 31.1908 23.7479 25.0411 23.7479C18.8915 23.7479 13.2271 22.2102 9.67712 19.6071C9.99984 18.9903 10.331 18.3784 10.6602 17.7703C12.2429 14.849 13.7375 12.0895 13.8668 9.3063ZM7.01447 26.6307C7.33986 24.7977 8.00018 23.0594 8.79402 21.3752C12.6877 24.0993 18.6443 25.701 25.0411 25.701C31.4384 25.701 37.3946 24.0989 41.2882 21.3752C42.0157 22.9186 42.6306 24.5078 42.9789 26.1737L27.4097 38.1369C25.9403 39.266 23.405 39.2252 21.8734 38.0484L7.01447 26.6307ZM43.2578 29.9071C42.7962 36.9456 39.4152 45.7136 38.4707 48.0471H26.0177V40.7965C26.9874 40.6199 27.8758 40.2415 28.5995 39.6857L43.2688 28.414C43.2925 28.9042 43.291 29.4013 43.2578 29.9071Z" fill="#FF2625" fill-opacity="0.2"/>
<path fill-rule="evenodd" clip-rule="evenodd" d="M25.0416 19.2012C25.581 19.2012 26.0181 18.764 26.0181 18.2246V15.2515C26.0181 14.7121 25.581 14.2749 25.0416 14.2749C24.5022 14.2749 24.065 14.7121 24.065 15.2515V18.2246C24.065 18.764 24.5022 19.2012 25.0416 19.2012Z" fill="#FF2625" fill-opacity="0.2"/>
<path fill-rule="evenodd" clip-rule="evenodd" d="M5.95152 10.7762C5.57005 11.1577 5.57005 11.7761 5.95152 12.1572C6.14226 12.3479 6.39212 12.4433 6.64198 12.4433C6.89185 12.4433 7.14209 12.3479 7.33244 12.1572C7.33244 12.1572 10.1584 9.33123 10.1622 9.32741C10.3823 9.1073 10.4933 8.78038 10.4384 8.47254C10.4025 8.27112 10.3087 8.09031 10.1637 7.94497L7.33244 5.1137C6.95135 4.73261 6.33299 4.73261 5.95152 5.1137C5.57005 5.49517 5.57005 6.11353 5.95152 6.495L7.11577 7.65886H1.46582C0.926422 7.65886 0.489258 8.09603 0.489258 8.63543C0.489258 9.17482 0.926422 9.61199 1.46582 9.61199H7.11577L5.95152 10.7762Z" fill="#FF2625" fill-opacity="0.2"/>
<path fill-rule="evenodd" clip-rule="evenodd" d="M48.6157 7.65886H42.9662L44.13 6.495C44.5115 6.11353 44.5115 5.49517 44.13 5.1137C43.7486 4.73261 43.1306 4.73261 42.7491 5.1137L39.9179 7.94497C39.6596 8.20284 39.5494 8.63008 39.6878 8.97417C39.7409 9.10578 39.8183 9.22632 39.9179 9.32589L42.7491 12.1572C42.9399 12.3479 43.1897 12.4433 43.4396 12.4433C43.6894 12.4433 43.9393 12.3479 44.13 12.1572C44.5115 11.7761 44.5115 11.1577 44.13 10.7762L42.9658 9.61199H48.6157C49.1551 9.61199 49.5923 9.17482 49.5923 8.63543C49.5923 8.09603 49.1551 7.65886 48.6157 7.65886Z" fill="#FF2625" fill-opacity="0.2"/>
<path fill-rule="evenodd" clip-rule="evenodd" d="M8.67816 39.679C8.67816 39.1411 8.23947 38.7024 7.7016 38.7024C7.16373 38.7024 6.72504 39.1411 6.72504 39.679C6.72504 40.2168 7.16373 40.6555 7.7016 40.6555C8.23947 40.6555 8.67816 40.2168 8.67816 39.679Z" fill="#FF2625" fill-opacity="0.2"/>
</g>
<defs>
<clipPath id="clip0_304_564">
<rect width="50" height="50" fill="white"/>
</clipPath>
</defs>
</svg>
